<?xml version="1.0" encoding="utf-8"?>
<!-- Generator: Adobe Illustrator 26.5.0, SVG Export Plug-In . SVG Version: 6.00 Build 0)  -->
<svg version="1.1" id="Capa_1" xmlns="http://www.w3.org/2000/svg" xmlns:xlink="http://www.w3.org/1999/xlink" x="0px" y="0px"
	 viewBox="0 0 299.2 299.3" style="enable-background:new 0 0 299.2 299.3;" xml:space="preserve">
<style type="text/css">
	.st0{fill:#FAFAFA;}
	.st1{fill:#18181B;}
</style>
<path class="st0" d="M262.4,298.7H37.2c-20.3,0-36.8-16.5-36.8-36.8V36.8C0.5,16.5,16.9,0,37.2,0h225.2c20.3,0,36.8,16.5,36.8,36.8
	V262C299.2,282.3,282.7,298.7,262.4,298.7z"/>
<g>
	<g>
		<path class="st1" d="M207.8,88.3c6.4,0,11.4,0.5,14.8,1.5c3.4,1,6,2.9,7.6,5.5c1.6,2.7,2.6,6.2,2.9,10.6c0.3,4.4,0.4,10,0.4,16.9
			v22.2c0,4.7,0.2,8.6,0.5,11.9c0.3,3.3,1.2,6,2.7,8.2c1.4,2.2,3.6,3.9,6.5,5.1c2.9,1.2,6.9,2.1,11.9,2.5v2.1
			c-5.1,0.4-9,1.2-11.9,2.5c-2.9,1.2-5,2.9-6.5,5.1c-1.4,2.2-2.3,5-2.7,8.3c-0.3,3.4-0.5,7.3-0.5,11.8v24.9c0,6.2-0.1,11.3-0.4,15.3
			c-0.3,4-1.2,7.3-2.9,9.7c-1.6,2.4-4.2,4.1-7.6,5c-3.4,1-8.2,1.4-14.4,1.4h-2.5v-1.8c3.8,0,6.8-0.5,8.9-1.5c2.1-1,3.7-2.4,4.8-4.1
			c1.1-1.7,1.8-3.8,2.1-6.3c0.3-2.5,0.4-5.2,0.4-8.2v-24.3c0-5.6,0.2-10.6,0.6-14.8c0.4-4.2,1.3-8,2.6-11.2c1.3-3.2,3.2-5.9,5.8-8
			c2.5-2.1,5.9-3.9,10.2-5.2c-4.7-1.2-8.3-2.8-10.9-4.7c-2.6-1.9-4.5-4.4-5.8-7.4c-1.2-3-2-6.6-2.2-10.8c-0.2-4.2-0.3-9-0.3-14.5
			v-23.8c0-3.3-0.1-6.3-0.4-8.9c-0.3-2.7-1-4.9-2.1-6.8c-1.1-1.8-2.7-3.3-4.8-4.3c-2.1-1-5.1-1.6-8.9-1.7v-2.1H207.8z"/>
	</g>
	<g>
		<path class="st1" d="M91.9,258.9c-6.4,0-11.4-0.5-14.8-1.5c-3.4-1-6-2.9-7.6-5.5c-1.6-2.7-2.6-6.2-2.9-10.6
			c-0.3-4.4-0.4-10-0.4-16.9v-22.2c0-4.7-0.2-8.6-0.5-11.9c-0.3-3.3-1.2-6-2.7-8.2c-1.4-2.2-3.6-3.9-6.5-5.1
			c-2.9-1.2-6.9-2.1-11.9-2.5v-2.1c5.1-0.4,9-1.2,11.9-2.5c2.9-1.2,5-2.9,6.5-5.1c1.4-2.2,2.3-5,2.7-8.3c0.3-3.4,0.5-7.3,0.5-11.8
			v-24.9c0-6.2,0.1-11.3,0.4-15.3c0.3-4,1.2-7.3,2.9-9.7c1.6-2.4,4.2-4.1,7.6-5c3.4-1,8.2-1.4,14.4-1.4h2.5v1.8
			c-3.8,0-6.8,0.5-8.9,1.5c-2.1,1-3.7,2.4-4.8,4.1c-1.1,1.7-1.8,3.8-2.1,6.3c-0.3,2.5-0.4,5.2-0.4,8.2v24.3c0,5.6-0.2,10.6-0.6,14.8
			c-0.4,4.2-1.3,8-2.6,11.2c-1.3,3.2-3.2,5.9-5.8,8c-2.5,2.1-5.9,3.9-10.2,5.2c4.7,1.2,8.3,2.8,10.9,4.7c2.6,1.9,4.5,4.4,5.8,7.4
			c1.2,3,2,6.6,2.2,10.8c0.2,4.2,0.3,9,0.3,14.5v23.8c0,3.3,0.1,6.3,0.4,8.9c0.3,2.7,1,4.9,2.1,6.8c1.1,1.8,2.7,3.3,4.8,4.3
			c2.1,1,5.1,1.6,8.9,1.7v2.1H91.9z"/>
	</g>
	<g>
		<path class="st1" d="M100,175.6c0-2.7,0.9-4.9,2.7-6.8c1.8-1.9,4-2.8,6.7-2.8c2.7,0,4.9,0.9,6.8,2.8c1.9,1.9,2.8,4.1,2.8,6.8
			c0,2.7-0.9,4.9-2.8,6.7c-1.9,1.8-4.1,2.7-6.8,2.7c-2.7,0-4.9-0.9-6.7-2.7C100.9,180.5,100,178.2,100,175.6z"/>
		<path class="st1" d="M140.2,175.6c0-2.7,0.9-4.9,2.7-6.8c1.8-1.9,4-2.8,6.7-2.8c2.7,0,4.9,0.9,6.8,2.8c1.9,1.9,2.8,4.1,2.8,6.8
			c0,2.7-0.9,4.9-2.8,6.7c-1.9,1.8-4.1,2.7-6.8,2.7c-2.7,0-4.9-0.9-6.7-2.7C141.1,180.5,140.2,178.2,140.2,175.6z"/>
		<path class="st1" d="M180.5,175.6c0-2.7,0.9-4.9,2.7-6.8c1.8-1.9,4-2.8,6.7-2.8c2.7,0,4.9,0.9,6.8,2.8c1.9,1.9,2.8,4.1,2.8,6.8
			c0,2.7-0.9,4.9-2.8,6.7c-1.9,1.8-4.1,2.7-6.8,2.7c-2.7,0-4.9-0.9-6.7-2.7C181.4,180.5,180.5,178.2,180.5,175.6z"/>
	</g>
	<g>
		<path class="st1" d="M196,63.7c-2.3-6-5.6-11.3-9.8-15.8c-4.3-4.5-9.4-8.2-15.5-10.8c-6.1-2.7-12.9-4-20.5-4
			c-8,0-15.1,1.5-21.4,4.4c-6.3,2.9-11.5,6.8-15.9,11.6c-4.4,4.8-7.6,10.2-9.9,16.3c-2.3,6.1-3.4,12.3-3.4,18.5
			c0,1.8,0.1,3.6,0.3,5.4h10.2c-0.4-2.5-0.7-5-0.7-7.5c0-5,0.9-10.1,2.6-15.2c1.8-5.2,4.3-9.9,7.7-14.1s7.5-7.6,12.3-10.3
			c4.8-2.7,10.2-4,16.3-4c6.3,0,11.9,1.4,16.9,4.2c5,2.8,9.4,6.4,13,10.8c3.6,4.4,6.4,9.4,8.4,14.9c2,5.5,2.9,10.9,2.9,16.3
			c0,1.6-0.1,3.3-0.3,5h9.7c0.3-2.2,0.4-4.4,0.4-6.7C199.5,76,198.3,69.7,196,63.7z"/>
	</g>
	<path class="st1" d="M199.5,265.7H99.7v0c0-7.7,6.2-24.6,14-24.6h71.8C193.2,241.1,199.5,258,199.5,265.7L199.5,265.7z"/>
	<rect x="93.2" y="88.3" class="st1" width="112.6" height="1.9"/>
</g>
</svg>
